<?xml version="1.0" encoding="utf-8"?>
<!-- Generator: Adobe Illustrator 30.0.0, SVG Export Plug-In . SVG Version: 9.03 Build 0)  -->
<svg version="1.0" id="Layer_1" xmlns="http://www.w3.org/2000/svg" xmlns:xlink="http://www.w3.org/1999/xlink" x="0px" y="0px"
	 viewBox="0 0 2057.4 731.8" style="enable-background:new 0 0 2057.4 731.8;" xml:space="preserve">
<style type="text/css">
	.st0{fill:#BA6FD8;}
	.st1{fill:#8831AD;}
	.st2{fill:#BCBDC0;}
	.st3{fill:#686A6A;}
	.st4{fill:url(#SVGID_1_);}
	.st5{fill:#6D6F71;}
</style>
<g>
	<g>
		<polygon class="st0" points="120.6,625.9 0.2,626 60.5,730.2 180.9,730.2 		"/>
		<polygon class="st1" points="241.1,625.9 180.8,521.6 120.6,625.9 180.9,730.2 		"/>
		<polygon class="st2" points="662.4,521.4 542,521.4 481.9,625.7 602.3,625.7 		"/>
		<polygon class="st3" points="60.3,730.2 0,625.7 602.1,625.7 361,208.7 481.5,208.7 722.5,625.7 782.7,730.2 		"/>
		<linearGradient id="SVGID_1_" gradientUnits="userSpaceOnUse" x1="180.6492" y1="364.9054" x2="842.9543" y2="364.9054">
			<stop  offset="0" style="stop-color:#F69F33"/>
			<stop  offset="1" style="stop-color:#F44F22"/>
		</linearGradient>
		<polygon class="st4" points="843,625.5 782.8,729.8 481.5,208.6 481.5,208.6 240.9,625.8 180.6,521.5 481.4,0 541.7,104.3 
			541.7,104.3 		"/>
		<path class="st2" d="M421.4,104.3L421.4,104.3L421.4,104.3l-60.2,104.3h0l0,0h0l-60.2,104.3h0l0,0h0L241,417.2h0l-60.2,104.3h0
			l120.4-0.1h0l120.4-0.1h0l120.4-0.1l-60.2,104.3l-120.4,0.1h0l-120.4,0.1h0l-120.4,0.1h0L0.3,625.9c0,0,0,0,0,0l60.2-104.3l0.9,0
			c0,0,0,0,0,0l-0.9,0l60.2-104.3l0.9,0c0,0,0,0,0,0l-0.9,0L180.7,313l0.8,0c0,0,0,0,0,0l-0.8,0l60.2-104.3l0.6,0c0,0,0,0,0,0
			l-0.6,0L301,104.4l0.3,0c0,0,0,0,0,0l-0.3,0L361.2,0.1L481.6,0L421.4,104.3L421.4,104.3z"/>
	</g>
	<g>
		<g>
			<path class="st5" d="M919.6,536.7c-1.7,0-2.3-0.6-2.3-2.3V353.7c0-1.4,0.3-2.5,2-2.5c22.3-0.6,34.2-0.8,56-0.8
				c45.3,0,71.9,19.5,71.9,55.7c0,24.6-15.8,42.1-36.5,49.8c9.3,13,43.3,63.6,51.5,77.8c0.8,1.7,1.1,3.1-0.6,3.1h-35.4
				c-2.3,0-3.1-0.6-4-1.4c-8.2-12.7-28-45.3-40.5-65.1c-2-3.4-3.4-4.8-6.5-4.8H951v69c0,1.7-0.8,2.3-2.3,2.3H919.6z M975.6,436.3
				c22.9,0,37.6-10.2,37.6-28.3c0-18.7-15-28-39-28c-9.6,0-18.7,0.3-23.2,0.6v55.7H975.6z"/>
			<path class="st5" d="M1201.1,534.4c-0.3,2-0.8,2.3-2.5,2.3h-112.6c-2,0-2.5-0.8-2.5-2.3V353.1c0-1.4,0.6-2.3,2.3-2.3h109.2
				c1.7,0,2.3,0.3,2.5,2l3.1,26.3c0.3,1.4-0.3,2.5-2,2.5h-80.9v45h73.5c1.4,0,2,0.3,2,2v26.9c0,1.4-0.8,1.7-2,1.7h-73.5v48.7h85.7
				c1.7,0,2.3,0.8,2,2.3L1201.1,534.4z"/>
			<path class="st5" d="M1305.2,502.8c6.2-22.1,20.4-70.2,47.2-149.6c0.6-1.7,1.1-2.3,2.5-2.3h30.8c1.4,0,2.3,0.8,1.7,2.5
				l-64.8,181.3c-0.6,1.7-1.4,2-2.8,2h-32.8c-1.4,0-2.3-0.3-2.8-1.7l-66.5-181.6c-0.6-1.4,0-2.5,1.7-2.5h32.5c1.4,0,2,0.6,2.3,1.7
				c26.9,74.4,45.3,129.3,50.4,150.2H1305.2z"/>
			<path class="st5" d="M1526.6,534.4c-0.3,2-0.8,2.3-2.5,2.3h-112.6c-2,0-2.5-0.8-2.5-2.3V353.1c0-1.4,0.6-2.3,2.3-2.3h109.2
				c1.7,0,2.3,0.3,2.5,2l3.1,26.3c0.3,1.4-0.3,2.5-2,2.5h-80.9v45h73.5c1.4,0,2,0.3,2,2v26.9c0,1.4-0.8,1.7-2,1.7h-73.5v48.7h85.7
				c1.7,0,2.3,0.8,2,2.3L1526.6,534.4z"/>
			<path class="st5" d="M1560.3,536.7c-1.7,0-2.5-0.3-2.5-2.5V352.8c0-1.4,0.6-2,2-2h39.9c2.3,0,2.5,0.6,3.4,2
				c20.9,37.3,64.2,117.1,74.1,138.3h0.3c-0.3-7.9-0.8-17.3-0.8-43.8v-94.2c0-1.4,0.8-2.3,2.5-2.3h27.2c2,0,2.5,0.8,2.5,2.5v180.8
				c0,2-0.8,2.5-2.8,2.5h-35.9c-2,0-2.8-0.6-3.7-2c-14.7-28.9-66.5-120.2-77.5-147.7h-0.3c1.1,14.4,1.4,26.9,1.4,52.6v94.5
				c0,1.7-0.6,2.5-2.3,2.5H1560.3z"/>
			<path class="st5" d="M1782.6,464.6c0,26.9,13,44.7,40.2,44.7c22.3,0,39-10.8,39-45.3V353.4c0-1.7,0.6-2.5,2.3-2.5h29.7
				c1.7,0,2.3,0.8,2.3,2.3v112.6c0,52.9-32.5,73.8-74.4,73.8c-44.7,0-73.3-23.8-73.3-72.4V353.4c0-1.7,0.3-2.5,2.3-2.5h29.7
				c1.7,0,2.3,0.6,2.3,2.3V464.6z"/>
			<path class="st5" d="M2053.1,534.4c-0.3,2-0.8,2.3-2.5,2.3h-112.6c-2,0-2.5-0.8-2.5-2.3V353.1c0-1.4,0.6-2.3,2.3-2.3h109.2
				c1.7,0,2.3,0.3,2.5,2l3.1,26.3c0.3,1.4-0.3,2.5-2,2.5h-80.9v45h73.5c1.4,0,2,0.3,2,2v26.9c0,1.4-0.8,1.7-2,1.7h-73.5v48.7h85.7
				c1.7,0,2.3,0.8,2,2.3L2053.1,534.4z"/>
		</g>
		<g>
			<path class="st5" d="M936,692.4l-11.8,35.5c-0.4,1.3-1.1,1.7-2.4,1.7h-21.5c-1.3,0-1.7-0.6-1.5-2.2l44.4-126.2
				c0.9-2.2,1.5-4.3,1.9-11.6c0-0.9,0.4-1.5,1.3-1.5h29.9c1.1,0,1.3,0.2,1.5,1.3l49.8,138.3c0.2,1.3,0,1.9-1.3,1.9h-24.1
				c-1.1,0-1.7-0.4-2.2-1.3l-12.5-36H936z M980.6,668.9c-4.5-14.2-14.6-44.2-19-59.2h-0.2c-3.4,14.4-12.1,39.6-18.5,59.2H980.6z"/>
			<path class="st5" d="M1046,729.6c-1.3,0-1.7-0.4-1.7-1.7V590.3c0-1.1,0.2-1.9,1.5-1.9c17-0.4,26.1-0.6,42.7-0.6
				c34.5,0,54.7,14.9,54.7,42.4c0,18.7-12.1,32.1-27.8,37.9c7.1,9.9,33,48.5,39.2,59.2c0.6,1.3,0.9,2.4-0.4,2.4h-26.9
				c-1.7,0-2.4-0.4-3-1.1c-6.2-9.7-21.3-34.5-30.8-49.5c-1.5-2.6-2.6-3.7-5-3.7H1070v52.6c0,1.3-0.6,1.7-1.7,1.7H1046z
				 M1088.7,653.2c17.4,0,28.6-7.8,28.6-21.5c0-14.2-11.4-21.3-29.7-21.3c-7.3,0-14.2,0.2-17.7,0.4v42.4H1088.7z"/>
			<path class="st5" d="M1267.7,725.1c0,1.3-0.4,2.4-1.5,2.8c-7.1,2.6-17.7,3.9-29.7,3.9c-39.9,0-73.9-23.5-73.9-72.6
				c0-43.3,30.2-73.2,77.1-73.2c14,0,22.6,1.3,28,3.7c0.9,0.4,1.3,1.1,1.3,2.4v20.5c0,1.7-0.9,1.7-1.7,1.3c-6.9-3.2-16.8-4.7-28-4.7
				c-30.4,0-49.8,19.4-49.8,49.5c0,37.3,27.6,50,50.2,50c10.6,0,18.5-0.9,26.5-3.7c0.9-0.4,1.5-0.2,1.5,1.1V725.1z"/>
			<path class="st5" d="M1378.6,729.6c-1.3,0-1.7-0.4-1.7-1.7v-60.1h-60.1v59.9c0,1.3-0.4,1.9-1.7,1.9h-22.2c-1.5,0-1.9-0.6-1.9-1.9
				V590c0-1.5,0.4-1.9,1.7-1.9h22.4c1.3,0,1.7,0.4,1.7,1.7v54.5h60.1v-54.7c0-0.9,0.4-1.5,1.5-1.5h23c1.1,0,1.5,0.4,1.5,1.5v138.3
				c0,1.3-0.4,1.7-1.7,1.7H1378.6z"/>
			<path class="st5" d="M1460.9,727.7c0,1.5-0.4,1.9-1.7,1.9h-22.6c-1.3,0-1.7-0.6-1.7-1.9V589.8c0-1.5,0.6-1.7,1.7-1.7h22.6
				c1.3,0,1.7,0.4,1.7,1.7V727.7z"/>
			<path class="st5" d="M1522.3,611.6h-43.7c-1.1,0-1.5-0.6-1.3-1.7l2.8-20c0.2-1.3,0.6-1.7,1.9-1.7h107.1c1.3,0,1.9,0.4,2.2,1.9
				l1.9,19.6c0.2,1.3-0.4,1.9-1.5,1.9h-43.5v116.1c0,1.3-0.6,1.9-1.7,1.9h-22.2c-1.5,0.2-1.9-0.4-1.9-1.9V611.6z"/>
			<path class="st5" d="M1698.9,727.9c-0.2,1.5-0.6,1.7-1.9,1.7h-85.7c-1.5,0-1.9-0.6-1.9-1.7V589.8c0-1.1,0.4-1.7,1.7-1.7h83.1
				c1.3,0,1.7,0.2,1.9,1.5l2.4,20c0.2,1.1-0.2,1.9-1.5,1.9h-61.6v34.2h56c1.1,0,1.5,0.2,1.5,1.5v20.5c0,1.1-0.6,1.3-1.5,1.3h-56v37
				h65.3c1.3,0,1.7,0.6,1.5,1.7L1698.9,727.9z"/>
			<path class="st5" d="M1820.4,725.1c0,1.3-0.4,2.4-1.5,2.8c-7.1,2.6-17.7,3.9-29.7,3.9c-39.9,0-73.9-23.5-73.9-72.6
				c0-43.3,30.2-73.2,77.1-73.2c14,0,22.6,1.3,28,3.7c0.9,0.4,1.3,1.1,1.3,2.4v20.5c0,1.7-0.9,1.7-1.7,1.3c-6.9-3.2-16.8-4.7-28-4.7
				c-30.4,0-49.8,19.4-49.8,49.5c0,37.3,27.6,50,50.2,50c10.6,0,18.5-0.9,26.5-3.7c0.9-0.4,1.5-0.2,1.5,1.1V725.1z"/>
			<path class="st5" d="M1879.9,611.6h-43.7c-1.1,0-1.5-0.6-1.3-1.7l2.8-20c0.2-1.3,0.6-1.7,1.9-1.7h107.1c1.3,0,1.9,0.4,2.2,1.9
				l1.9,19.6c0.2,1.3-0.4,1.9-1.5,1.9h-43.5v116.1c0,1.3-0.6,1.9-1.7,1.9h-22.2c-1.5,0.2-1.9-0.4-1.9-1.9V611.6z"/>
			<path class="st5" d="M1965.4,724c-1.1-0.6-1.5-1.5-1.5-3.2v-22.4c0-0.9,0.9-1.3,1.7-0.9c11.6,7.5,25.8,11.2,38.3,11.2
				c17.7,0,25.2-6.9,25.2-16.2c0-8-5.2-14-21.5-20.9l-10.3-4.3c-26.5-11.2-33.4-24.6-33.4-40.7c0-23,17.4-40.7,50-40.7
				c13.6,0,25.8,1.9,33,5.6c1.1,0.6,1.3,1.3,1.3,2.8v20.9c0,0.9-0.6,1.7-1.9,0.9c-8.2-4.7-20-7.1-32.5-7.1
				c-18.5,0-24.3,7.8-24.3,15.3c0,7.8,5,13.1,22,20.2l8.2,3.4c28,11.6,36,25.2,36,42.2c0,25.2-19.8,41.6-52.3,41.6
				C1987.3,731.8,1974.2,728.8,1965.4,724z"/>
		</g>
	</g>
</g>
</svg>
