<?xml version="1.0" encoding="utf-8"?>
<!-- Generator: Adobe Illustrator 30.0.0, SVG Export Plug-In . SVG Version: 9.03 Build 0)  -->
<svg version="1.0" id="Layer_1" xmlns="http://www.w3.org/2000/svg" xmlns:xlink="http://www.w3.org/1999/xlink" x="0px" y="0px"
	 viewBox="0 0 2290.4 736.8" style="enable-background:new 0 0 2290.4 736.8;" xml:space="preserve">
<style type="text/css">
	.st0{fill:#6D6F71;}
	.st1{fill:#BCBDC0;}
	.st2{fill:#686A6A;}
	.st3{fill:url(#SVGID_1_);}
</style>
<g>
	<g>
		<path class="st0" d="M921.8,501.4c-2,0-2.8-0.7-2.8-2.8V281.3c0-1.7,0.4-3,2.4-3c26.8-0.7,41.1-1,67.4-1c54.5,0,86.5,23.5,86.5,67
			c0,29.6-19,50.6-43.9,59.9c11.2,15.6,52.1,76.5,61.9,93.6c1,2,1.3,3.7-0.7,3.7H1050c-2.8,0-3.7-0.7-4.8-1.7
			c-9.9-15.3-33.7-54.5-48.7-78.3c-2.4-4.1-4.1-5.8-7.8-5.8h-29.1v83c0,2-1,2.8-2.8,2.8h-35V501.4z M989.1,380.6
			c27.5,0,45.2-12.3,45.2-34c0-22.5-18-33.7-46.9-33.7c-11.5,0-22.5,0.4-27.9,0.7v67L989.1,380.6L989.1,380.6z"/>
		<path class="st0" d="M1260.4,498.6c-0.4,2.4-1,2.8-3,2.8h-135.4c-2.4,0-3-1-3-2.8V280.5c0-1.7,0.7-2.8,2.8-2.8H1253
			c2,0,2.8,0.4,3,2.4l3.7,31.6c0.4,1.7-0.4,3-2.4,3H1160v54.1h88.4c1.7,0,2.4,0.4,2.4,2.4v32.4c0,1.7-1,2-2.4,2H1160v58.6h103.1
			c2,0,2.8,1,2.4,2.8L1260.4,498.6z"/>
		<path class="st0" d="M1385.6,460.6c7.5-26.6,24.5-84.4,56.8-179.9c0.7-2,1.3-2.8,3-2.8h37c1.7,0,2.8,1,2,3L1406.5,499
			c-0.7,2-1.7,2.4-3.4,2.4h-39.5c-1.7,0-2.8-0.4-3.4-2l-80-218.4c-0.7-1.7,0-3,2-3h39.1c1.7,0,2.4,0.7,2.8,2
			c32.4,89.5,54.5,155.5,60.6,180.7H1385.6z"/>
		<path class="st0" d="M1651.9,498.6c-0.4,2.4-1,2.8-3,2.8h-135.4c-2.4,0-3-1-3-2.8V280.5c0-1.7,0.7-2.8,2.8-2.8h131.3
			c2,0,2.8,0.4,3,2.4l3.7,31.6c0.4,1.7-0.4,3-2.4,3h-97.3v54.1h88.4c1.7,0,2.4,0.4,2.4,2.4v32.4c0,1.7-1,2-2.4,2h-88.4v58.6h103.1
			c2,0,2.8,1,2.4,2.8L1651.9,498.6z"/>
		<path class="st0" d="M1692.4,501.4c-2,0-3-0.4-3-3V280.2c0-1.7,0.7-2.4,2.4-2.4h48c2.8,0,3,0.7,4.1,2.4
			C1769,325,1821.1,421,1833,446.5h0.4c-0.4-9.5-1-20.8-1-52.7V280.5c0-1.7,1-2.8,3-2.8h32.7c2.4,0,3,1,3,3v217.5c0,2.4-1,3-3.4,3
			h-43.2c-2.4,0-3.4-0.7-4.5-2.4c-17.7-34.8-80-144.6-93.2-177.6h-0.4c1.3,17.3,1.7,32.4,1.7,63.3v113.7c0,2-0.7,3-2.8,3h-33.1
			V501.4z"/>
		<path class="st0" d="M1959.8,414.6c0,32.4,15.6,53.8,48.4,53.8c26.8,0,46.9-13,46.9-54.5v-133c0-2,0.7-3,2.8-3h35.7
			c2,0,2.8,1,2.8,2.8v135.4c0,63.6-39.1,88.8-89.5,88.8c-53.8,0-88.2-28.6-88.2-87.1V280.9c0-2,0.4-3,2.8-3h35.7
			c2,0,2.8,0.7,2.8,2.8v134H1959.8z"/>
		<path class="st0" d="M2285.1,498.6c-0.4,2.4-1,2.8-3,2.8h-135.4c-2.4,0-3-1-3-2.8V280.5c0-1.7,0.7-2.8,2.8-2.8h131.3
			c2,0,2.8,0.4,3,2.4l3.7,31.6c0.4,1.7-0.4,3-2.4,3h-97.3v54.1h88.4c1.7,0,2.4,0.4,2.4,2.4v32.4c0,1.7-1,2-2.4,2h-88.4v58.6h103.1
			c2,0,2.8,1,2.4,2.8L2285.1,498.6z"/>
	</g>
	<g>
		<path class="st0" d="M941.5,688.6l-14.2,42.7c-0.5,1.6-1.3,2-2.9,2h-25.9c-1.6,0-2-0.7-1.8-2.6l53.4-151.8c1.1-2.6,1.8-5.2,2.3-14
			c0-1.1,0.5-1.8,1.6-1.8h36c1.3,0,1.6,0.2,1.8,1.6l59.9,166.3c0.2,1.6,0,2.3-1.6,2.3h-29c-1.3,0-2-0.5-2.6-1.6l-15-43.3h-61.9
			V688.6z M995.1,660.4c-5.4-17.1-17.6-53.2-22.9-71.2h-0.2c-4.1,17.3-14.6,47.6-22.3,71.2H995.1z"/>
		<path class="st0" d="M1073.8,733.4c-1.6,0-2-0.5-2-2V565.8c0-1.3,0.2-2.3,1.8-2.3c20.4-0.5,31.4-0.7,51.4-0.7
			c41.5,0,65.8,17.9,65.8,51c0,22.5-14.6,38.6-33.4,45.6c8.5,11.9,39.7,58.3,47.1,71.2c0.7,1.6,1.1,2.9-0.5,2.9h-32.4
			c-2,0-2.9-0.5-3.6-1.3c-7.5-11.7-25.6-41.5-37-59.5c-1.8-3.1-3.1-4.5-6-4.5h-22.3v63.3c0,1.6-0.7,2-2,2h-26.8V733.4z
			 M1125.2,641.5c20.9,0,34.4-9.4,34.4-25.9c0-17.1-13.7-25.6-35.7-25.6c-8.8,0-17.1,0.2-21.3,0.5v51L1125.2,641.5L1125.2,641.5z"/>
		<path class="st0" d="M1340.5,728c0,1.6-0.5,2.9-1.8,3.4c-8.5,3.1-21.3,4.7-35.7,4.7c-48,0-88.9-28.3-88.9-87.3
			c0-52.1,36.3-88,92.7-88c16.8,0,27.2,1.6,33.7,4.5c1.1,0.5,1.6,1.3,1.6,2.9v24.7c0,2-1.1,2-2,1.6c-8.3-3.8-20.2-5.7-33.7-5.7
			c-36.6,0-59.9,23.3-59.9,59.5c0,44.9,33.2,60.1,60.4,60.1c12.7,0,22.3-1.1,31.9-4.5c1.1-0.5,1.8-0.2,1.8,1.3V728z"/>
		<path class="st0" d="M1473.8,733.4c-1.6,0-2-0.5-2-2V659h-72.3v72c0,1.6-0.5,2.3-2,2.3h-26.7c-1.8,0-2.3-0.7-2.3-2.3V565.5
			c0-1.8,0.5-2.3,2-2.3h26.9c1.6,0,2,0.5,2,2v65.6h72.3V565c0-1.1,0.5-1.8,1.8-1.8h27.7c1.3,0,1.8,0.5,1.8,1.8v166.3
			c0,1.6-0.5,2-2,2H1473.8z"/>
		<path class="st0" d="M1572.8,731.1c0,1.8-0.5,2.3-2,2.3h-27.2c-1.6,0-2-0.7-2-2.3V565.2c0-1.8,0.7-2,2-2h27.2c1.6,0,2,0.5,2,2
			V731.1z"/>
		<path class="st0" d="M1646.7,591.5h-52.6c-1.3,0-1.8-0.7-1.6-2l3.4-24.1c0.2-1.6,0.7-2,2.3-2H1727c1.6,0,2.3,0.5,2.6,2.3l2.3,23.6
			c0.2,1.6-0.5,2.3-1.8,2.3h-52.3v139.6c0,1.6-0.7,2.3-2,2.3h-26.7c-1.8,0.2-2.3-0.5-2.3-2.3V591.5H1646.7z"/>
		<path class="st0" d="M1859.1,731.3c-0.2,1.8-0.7,2-2.3,2h-103.1c-1.8,0-2.3-0.7-2.3-2V565.2c0-1.3,0.5-2,2-2h99.9
			c1.6,0,2,0.2,2.3,1.8l2.9,24.1c0.2,1.3-0.2,2.3-1.8,2.3h-74.1v41.1h67.4c1.3,0,1.8,0.2,1.8,1.8v24.7c0,1.3-0.7,1.6-1.8,1.6h-67.4
			V705h78.5c1.6,0,2,0.7,1.8,2L1859.1,731.3z"/>
		<path class="st0" d="M2005.2,728c0,1.6-0.5,2.9-1.8,3.4c-8.5,3.1-21.3,4.7-35.7,4.7c-48,0-88.9-28.3-88.9-87.3
			c0-52.1,36.3-88,92.7-88c16.8,0,27.2,1.6,33.7,4.5c1.1,0.5,1.6,1.3,1.6,2.9v24.7c0,2-1.1,2-2,1.6c-8.3-3.8-20.2-5.7-33.7-5.7
			c-36.6,0-59.9,23.3-59.9,59.5c0,44.9,33.2,60.1,60.4,60.1c12.7,0,22.3-1.1,31.9-4.5c1.1-0.5,1.8-0.2,1.8,1.3V728z"/>
		<path class="st0" d="M2076.8,591.5h-52.6c-1.3,0-1.8-0.7-1.6-2l3.4-24.1c0.2-1.6,0.7-2,2.3-2h128.8c1.6,0,2.3,0.5,2.6,2.3
			l2.3,23.6c0.2,1.6-0.5,2.3-1.8,2.3h-52.3v139.6c0,1.6-0.7,2.3-2,2.3h-26.7c-1.8,0.2-2.3-0.5-2.3-2.3V591.5H2076.8z"/>
		<path class="st0" d="M2179.6,726.6c-1.3-0.7-1.8-1.8-1.8-3.8v-26.9c0-1.1,1.1-1.6,2-1.1c14,9,31,13.5,46.1,13.5
			c21.3,0,30.3-8.3,30.3-19.5c0-9.6-6.3-16.8-25.9-25.1l-12.4-5.2c-31.9-13.5-40.2-29.6-40.2-49c0-27.7,20.9-49,60.1-49
			c16.4,0,31,2.3,39.7,6.7c1.3,0.7,1.6,1.6,1.6,3.4v25.1c0,1.1-0.7,2-2.3,1.1c-9.9-5.7-24.1-8.5-39.1-8.5
			c-22.3,0-29.2,9.4-29.2,18.4c0,9.4,6,15.8,26.5,24.3l9.9,4.1c33.7,14,43.3,30.3,43.3,50.8c0,30.3-23.8,50-62.9,50
			C2206,736,2190.2,732.4,2179.6,726.6z"/>
	</g>
</g>
<g>
	<polygon class="st1" points="636.7,495.6 459.1,495.6 397,620.5 574.6,620.5 	"/>
	<polygon class="st2" points="60.3,736.8 0,620.3 575.1,620.3 334,215.3 481.5,215.3 722.5,632.3 782.7,736.8 	"/>
	
		<linearGradient id="SVGID_1_" gradientUnits="userSpaceOnUse" x1="203.8438" y1="1593.807" x2="859.2438" y2="1593.807" gradientTransform="matrix(1 0 0 -1 0 1962.207)">
		<stop  offset="0" style="stop-color:#F69F33"/>
		<stop  offset="0.1693" style="stop-color:#F69C32"/>
		<stop  offset="0.2806" style="stop-color:#F69331"/>
		<stop  offset="0.3753" style="stop-color:#F5852D"/>
		<stop  offset="0.46" style="stop-color:#F57029"/>
		<stop  offset="0.4717" style="stop-color:#F56C28"/>
		<stop  offset="0.5728" style="stop-color:#EE6725"/>
		<stop  offset="0.7246" style="stop-color:#D9591E"/>
		<stop  offset="0.9074" style="stop-color:#B84212"/>
		<stop  offset="0.9814" style="stop-color:#A8370D"/>
	</linearGradient>
	<polygon class="st3" points="859.2,625.5 782,736.8 480.7,215.6 516.7,208.6 283.1,618.8 203.8,514.5 497.6,0 557.9,104.3 
		557.9,104.3 	"/>
	<path class="st1" d="M0.1,620.5L361,0.1L501.4,0L214.5,495.6h276.8l-58.7,124.9H0.1z"/>
</g>
</svg>
